<svg id="Layer_1" data-name="Layer 1" xmlns="http://www.w3.org/2000/svg" viewBox="0 0 81.61 80.93"><title>trust</title><path d="M46.17,5.72a9.33,9.33,0,0,1,5.61,1.76c2.19,1.39,4.66,4.14,7.71,5.88,4.29,2.45,12.23-.93,16.29,5.11,2.37,3.52,2.48,6.28,2.66,9a15.86,15.86,0,0,0,3.72,9.63c5,6.6,6,11,3.46,15.56-1.75,3.12-5.44,4.85-6.29,6.83-1.82,4.2.19,7.37-2.29,12.27a13.07,13.07,0,0,1-7.94,6.78c-3,1-6-.43-8.39.58C56.5,80.9,53.4,85,50.05,86.05a13,13,0,0,1-7.74,0C39,85,35.86,80.9,31.65,79.13c-2.4-1-5.4.39-8.39-.58a13.07,13.07,0,0,1-7.94-6.78c-2.49-4.9-.48-8.07-2.29-12.27-.85-2-4.54-3.71-6.29-6.83-2.59-4.57-1.55-9,3.44-15.55a15.86,15.86,0,0,0,3.72-9.63c.18-2.73.29-5.49,2.66-9,4.07-6,12-2.66,16.29-5.11,3-1.74,5.52-4.49,7.71-5.88a9.19,9.19,0,0,1,5.61-1.77ZM34.77,45,40,50,57,31.88c.89-.9,1.45-1.62,2.54-.5L63.07,35c1.17,1.16,1.11,1.83,0,2.91L42,59.77c-2.32,2.28-1.92,2.42-4.28.08l-9-8.92a1,1,0,0,1,.1-1.6L33,45.05c.63-.66,1.13-.62,1.77,0Z" transform="translate(-5.37 -5.71)" style="fill:#2bbfed;fill-rule:evenodd"/></svg>